<svg width="0" height="0" class="hidden">
  <symbol fill="#f97d35" xmlns="http://www.w3.org/2000/svg" viewBox="0 0 50 50" id="google-plus">
    <path d="M 17.1875 10.9375 C 9.421875 10.9375 3.125 17.234375 3.125 25 C 3.125 32.765625 9.421875 39.0625 17.1875 39.0625 C 24.953125 39.0625 31.25 32.765625 31.25 25 C 31.25 24.035156 31.144531 23.09375 30.960938 22.1875 L 30.882813 21.875 L 17.1875 21.875 L 17.1875 26.5625 L 26.5625 26.5625 C 25.816406 30.996094 21.832031 34.375 17.1875 34.375 C 12.007813 34.375 7.8125 30.179688 7.8125 25 C 7.8125 19.820313 12.007813 15.625 17.1875 15.625 C 19.53125 15.625 21.667969 16.492188 23.3125 17.914063 L 26.671875 14.625 C 24.171875 12.335938 20.84375 10.9375 17.1875 10.9375 Z M 39.0625 17.1875 L 39.0625 21.875 L 34.375 21.875 L 34.375 25 L 39.0625 25 L 39.0625 29.6875 L 42.1875 29.6875 L 42.1875 25 L 46.875 25 L 46.875 21.875 L 42.1875 21.875 L 42.1875 17.1875 Z"></path>
  </symbol>
  <symbol fill="#f7924a" xmlns="http://www.w3.org/2000/svg" viewBox="0 0 30 30" id="instagram">
    <path d="M 9.9980469 3 C 6.1390469 3 3 6.1419531 3 10.001953 L 3 20.001953 C 3 23.860953 6.1419531 27 10.001953 27 L 20.001953 27 C 23.860953 27 27 23.858047 27 19.998047 L 27 9.9980469 C 27 6.1390469 23.858047 3 19.998047 3 L 9.9980469 3 z M 22 7 C 22.552 7 23 7.448 23 8 C 23 8.552 22.552 9 22 9 C 21.448 9 21 8.552 21 8 C 21 7.448 21.448 7 22 7 z M 15 9 C 18.309 9 21 11.691 21 15 C 21 18.309 18.309 21 15 21 C 11.691 21 9 18.309 9 15 C 9 11.691 11.691 9 15 9 z M 15 11 A 4 4 0 0 0 11 15 A 4 4 0 0 0 15 19 A 4 4 0 0 0 19 15 A 4 4 0 0 0 15 11 z"></path>
  </symbol>
  <symbol fill="#fc661e" xmlns="http://www.w3.org/2000/svg" viewBox="0 0 30 30" id="twitter">
    <path d="M28,6.937c-0.957,0.425-1.985,0.711-3.064,0.84c1.102-0.66,1.947-1.705,2.345-2.951c-1.03,0.611-2.172,1.055-3.388,1.295 c-0.973-1.037-2.359-1.685-3.893-1.685c-2.946,0-5.334,2.389-5.334,5.334c0,0.418,0.048,0.826,0.138,1.215 c-4.433-0.222-8.363-2.346-10.995-5.574C3.351,6.199,3.088,7.115,3.088,8.094c0,1.85,0.941,3.483,2.372,4.439 c-0.874-0.028-1.697-0.268-2.416-0.667c0,0.023,0,0.044,0,0.067c0,2.585,1.838,4.741,4.279,5.23 c-0.447,0.122-0.919,0.187-1.406,0.187c-0.343,0-0.678-0.034-1.003-0.095c0.679,2.119,2.649,3.662,4.983,3.705 c-1.825,1.431-4.125,2.284-6.625,2.284c-0.43,0-0.855-0.025-1.273-0.075c2.361,1.513,5.164,2.396,8.177,2.396 c9.812,0,15.176-8.128,15.176-15.177c0-0.231-0.005-0.461-0.015-0.69C26.38,8.945,27.285,8.006,28,6.937z"></path>
  </symbol>
  <symbol fill="#f4ad64" version="1.1" id="youtube" xmlns="http://www.w3.org/2000/svg" xmlns:xlink="http://www.w3.org/2000/xlink" x="0px" y="0px" xml:space="preserve" viewBox="0 0 64 64">
    <g>
      <path d="M 16.140625 7.0273438 L 19.851562 20.433594 L 19.853516 20.433594 L 19.853516 26.865234 L 23.066406 26.865234 L 23.066406 20.433594 L 26.826172 7.0273438 L 23.587891 7.0273438 L 22.240234 13.126953 C 21.861234 14.907953 21.618813 16.176641 21.507812 16.931641 L 21.412109 16.931641 C 21.255109 15.876641 21.009687 14.598516 20.679688 13.103516 L 19.378906 7.0273438 L 16.140625 7.0273438 z M 30.574219 12.089844 C 29.484219 12.089844 28.6065 12.303281 27.9375 12.738281 C 27.2665 13.171281 26.774984 13.861641 26.458984 14.806641 C 26.144984 15.753641 25.986328 17.006406 25.986328 18.566406 L 25.986328 20.669922 C 25.986328 22.212922 26.124391 23.450859 26.400391 24.380859 C 26.676391 25.310859 27.140922 25.9965 27.794922 26.4375 C 28.449922 26.8785 29.353906 27.099516 30.503906 27.103516 C 31.622906 27.103516 32.509109 26.887125 33.162109 26.453125 C 33.815109 26.019125 34.289078 25.335484 34.580078 24.396484 C 34.871078 23.457484 35.017578 22.218828 35.017578 20.673828 L 35.017578 18.566406 C 35.017578 17.006406 34.867359 15.759313 34.568359 14.820312 C 34.269359 13.883313 33.798391 13.192953 33.150391 12.751953 C 32.504391 12.310953 31.645219 12.089844 30.574219 12.089844 z M 36.707031 12.371094 L 36.707031 23.197266 C 36.707031 24.538266 36.938531 25.525297 37.394531 26.154297 C 37.852531 26.783297 38.561437 27.099609 39.523438 27.099609 C 40.910438 27.099609 41.950578 26.431797 42.642578 25.091797 L 42.714844 25.091797 L 42.998047 26.863281 L 45.550781 26.863281 L 45.550781 12.371094 L 42.287109 12.371094 L 42.287109 23.882812 C 42.162109 24.152813 41.969984 24.370922 41.708984 24.544922 C 41.447984 24.719922 41.178531 24.806641 40.894531 24.806641 C 40.561531 24.806641 40.325594 24.668578 40.183594 24.392578 C 40.041594 24.116578 39.970703 23.657766 39.970703 23.009766 L 39.970703 12.371094 L 36.707031 12.371094 z M 30.503906 14.335938 C 30.959906 14.335938 31.280938 14.573688 31.460938 15.054688 C 31.642937 15.533687 31.732422 16.294937 31.732422 17.335938 L 31.732422 21.851562 C 31.732422 22.924563 31.640937 23.696922 31.460938 24.169922 C 31.280938 24.641922 30.958906 24.877859 30.503906 24.880859 C 30.047906 24.880859 29.732594 24.642922 29.558594 24.169922 C 29.383594 23.696922 29.298828 22.922563 29.298828 21.851562 L 29.298828 17.335938 C 29.298828 16.296937 29.390313 15.535687 29.570312 15.054688 C 29.750313 14.575688 30.062906 14.335938 30.503906 14.335938 z M 14 31 C 11.239 31 9 33.239 9 36 L 9 52 C 9 54.761 11.239 57 14 57 L 50 57 C 52.761 57 55 54.761 55 52 L 55 36 C 55 33.239 52.761 31 50 31 L 14 31 z M 32.119141 34.806641 L 34.71875 34.806641 L 34.71875 41.117188 L 34.738281 41.117188 C 34.971281 40.661187 35.304375 40.293672 35.734375 40.013672 C 36.164375 39.733672 36.627047 39.59375 37.123047 39.59375 C 37.762047 39.59375 38.263 39.763562 38.625 40.101562 C 38.987 40.439563 39.252063 40.988141 39.414062 41.744141 C 39.576062 42.501141 39.658203 43.549625 39.658203 44.890625 L 39.658203 46.783203 L 39.660156 46.783203 C 39.660156 48.568203 39.443672 49.879703 39.013672 50.720703 C 38.583672 51.561703 37.912953 51.982422 37.001953 51.982422 C 36.493953 51.982422 36.031281 51.863859 35.613281 51.630859 C 35.195281 51.397859 34.885734 51.076875 34.677734 50.671875 L 34.617188 50.671875 L 34.345703 51.804688 L 32.119141 51.804688 L 32.119141 34.806641 z M 16 35.412109 L 23.990234 35.412109 L 23.990234 37.582031 L 21.314453 37.582031 L 21.314453 51.804688 L 18.677734 51.804688 L 18.677734 37.582031 L 16 37.582031 L 16 35.412109 z M 44.521484 39.601562 C 45.444484 39.601562 46.154391 39.771375 46.650391 40.109375 C 47.143391 40.449375 47.494266 40.977406 47.697266 41.691406 C 47.898266 42.407406 48 43.397156 48 44.660156 L 48 46.712891 L 48 46.714844 L 43.488281 46.714844 L 43.488281 47.320312 C 43.488281 48.090313 43.511594 48.667781 43.558594 49.050781 C 43.605594 49.433781 43.698797 49.716625 43.841797 49.890625 C 43.984797 50.066625 44.204906 50.152344 44.503906 50.152344 C 44.906906 50.152344 45.184937 49.994594 45.335938 49.683594 C 45.484938 49.372594 45.565125 48.850094 45.578125 48.121094 L 47.904297 48.257812 C 47.916297 48.359812 47.923828 48.5055 47.923828 48.6875 C 47.923828 49.7945 47.621625 50.624922 47.015625 51.169922 C 46.409625 51.718922 45.553313 51.990234 44.445312 51.990234 C 43.117312 51.990234 42.186391 51.571281 41.650391 50.738281 C 41.114391 49.905281 40.849609 48.616094 40.849609 46.871094 L 40.849609 44.779297 C 40.849609 42.982297 41.128641 41.670797 41.681641 40.841797 C 42.234641 40.012797 43.180484 39.601562 44.521484 39.601562 z M 27.802734 39.822266 L 30.5 39.822266 L 30.5 51.798828 L 30.494141 51.798828 L 30.494141 51.804688 L 28.384766 51.804688 L 28.150391 50.337891 L 28.091797 50.337891 C 27.516797 51.446891 26.657719 52 25.511719 52 C 24.715719 52 24.131906 51.74075 23.753906 51.21875 C 23.374906 50.69875 23.1875 49.880391 23.1875 48.775391 L 23.1875 39.826172 L 25.886719 39.826172 L 25.886719 48.619141 C 25.886719 49.151141 25.9455 49.536719 26.0625 49.761719 C 26.1815 49.990719 26.374391 50.103516 26.650391 50.103516 C 26.883391 50.103516 27.107266 50.031719 27.322266 49.886719 C 27.539266 49.743719 27.696734 49.559891 27.802734 49.337891 L 27.802734 39.822266 z M 44.462891 41.419922 C 44.175891 41.419922 43.964172 41.505828 43.826172 41.673828 C 43.689172 41.843828 43.597687 42.120859 43.554688 42.505859 C 43.507688 42.888859 43.484375 43.473906 43.484375 44.253906 L 43.484375 45.113281 L 45.457031 45.113281 L 45.457031 44.253906 C 45.457031 43.483906 45.429906 42.902859 45.378906 42.505859 C 45.328906 42.106859 45.236609 41.827063 45.099609 41.664062 C 44.962609 41.502063 44.751891 41.419922 44.462891 41.419922 z M 35.908203 41.509766 C 35.648203 41.509766 35.407547 41.611312 35.185547 41.820312 C 34.964547 42.029313 34.806797 42.298094 34.716797 42.621094 L 34.716797 49.421875 C 34.835797 49.630875 34.987781 49.785625 35.175781 49.890625 C 35.363781 49.992625 35.568016 50.048828 35.791016 50.048828 C 36.078016 50.048828 36.304609 49.945328 36.474609 49.736328 C 36.644609 49.527328 36.766937 49.176641 36.835938 48.681641 C 36.907938 48.188641 36.943359 47.502859 36.943359 46.630859 L 36.943359 45.087891 C 36.943359 44.150891 36.914469 43.427969 36.855469 42.917969 C 36.800469 42.409969 36.693875 42.043078 36.546875 41.830078 C 36.397875 41.617078 36.185203 41.509766 35.908203 41.509766 z"></path>
    </g>
    <g></g>
    <g></g>
    <g></g>
    <g></g>
    <g></g>
    <g></g>
    <g></g>
    <g></g>
    <g></g>
    <g></g>
    <g></g>
    <g></g>
    <g></g>
    <g></g>
    <g></g>
  </symbol>
  <symbol fill="#fe4e07" xmlns="http://www.w3.org/2000/svg" viewBox="0 0 30 30" id="facebook">
    <path d="M24,4H6C4.895,4,4,4.895,4,6v18c0,1.105,0.895,2,2,2h10v-9h-3v-3h3v-1.611C16,9.339,17.486,8,20.021,8 c1.214,0,1.856,0.09,2.16,0.131V11h-1.729C19.376,11,19,11.568,19,12.718V14h3.154l-0.428,3H19v9h5c1.105,0,2-0.895,2-2V6 C26,4.895,25.104,4,24,4z"></path>
  </symbol>
</svg>